<svg width="684" height="482" viewBox="0 0 684 482" fill="none" xmlns="http://www.w3.org/2000/svg">
<circle cx="341" cy="162" r="162" fill="#6D6875"/>
<path d="M444.581 162.124C438.605 152.961 431.753 150.264 425.505 150.651C419.481 150.264 412.405 152.96 406.429 162.124C391.37 185.216 425.505 225.375 425.505 225.375C425.505 225.375 459.643 185.216 444.581 162.124ZM425.505 180.531C419.868 180.531 415.298 176.037 415.298 170.491C415.298 164.944 419.868 160.45 425.505 160.45C431.143 160.45 435.713 164.944 435.713 170.491C435.715 176.035 431.145 180.531 425.505 180.531Z" fill="#F4F3EE"/>
<path d="M274.988 75.5088C269.012 66.3452 262.16 63.6489 255.912 64.0356C249.888 63.6488 242.812 66.345 236.837 75.5088C221.777 98.6006 255.912 138.76 255.912 138.76C255.912 138.76 290.046 98.6001 274.988 75.5088ZM255.91 93.9138C250.273 93.9138 245.703 89.4195 245.703 83.8733C245.703 78.3271 250.273 73.8328 255.91 73.8328C261.548 73.8328 266.118 78.3271 266.118 83.8733C266.118 89.4211 261.548 93.9138 255.91 93.9138Z" fill="#F4F3EE"/>
<path d="M425.506 224.833C419.682 224.833 414.552 227.688 411.315 232.037L329.791 148.129L275.373 157.273C275.381 157.05 275.439 156.838 275.439 156.616C275.439 146.834 267.481 138.882 257.701 138.882C247.921 138.882 239.966 146.834 239.966 156.616C239.966 166.398 247.919 174.351 257.701 174.351C264.016 174.351 269.531 171.013 272.675 166.033L326.913 156.916L408 240.366C407.909 241.097 407.776 241.814 407.776 242.569C407.776 252.35 415.729 260.303 425.511 260.303C435.293 260.303 443.25 252.351 443.25 242.569C443.25 232.785 435.293 224.832 425.511 224.832L425.506 224.833ZM257.7 166.165C252.436 166.165 248.151 161.883 248.151 156.616C248.151 151.352 252.434 147.067 257.7 147.067C262.968 147.067 267.252 151.35 267.252 156.616C267.254 161.882 262.97 166.165 257.7 166.165ZM425.506 252.119C420.242 252.119 415.957 247.836 415.957 242.57C415.957 237.306 420.24 233.021 425.506 233.021C430.774 233.021 435.059 237.303 435.059 242.57C435.061 247.834 430.774 252.119 425.506 252.119Z" fill="#F4F3EE"/>
<path d="M44.928 451.952C44.928 453.659 40.704 454.512 32.256 454.512C23.808 454.512 19.584 453.659 19.584 451.952V387.696H4.224C2.77333 387.696 1.74933 385.733 1.152 381.808C0.896 379.931 0.768 378.011 0.768 376.048C0.768 374.085 0.896 372.165 1.152 370.288C1.74933 366.363 2.77333 364.4 4.224 364.4H59.904C61.3547 364.4 62.3787 366.363 62.976 370.288C63.232 372.165 63.36 374.085 63.36 376.048C63.36 378.011 63.232 379.931 62.976 381.808C62.3787 385.733 61.3547 387.696 59.904 387.696H44.928V451.952ZM96.167 453.872C96.167 454.469 92.2843 454.768 84.519 454.768C76.7537 454.597 72.871 454.256 72.871 453.744V411.248H69.415C68.0497 411.248 66.9403 410.437 66.087 408.816C65.319 407.109 64.935 405.019 64.935 402.544C64.935 393.328 67.6657 388.72 73.127 388.72C76.967 388.72 80.167 389.915 82.727 392.304C85.287 394.608 86.567 397.253 86.567 400.24C88.359 396.741 90.7483 393.968 93.735 391.92C96.807 389.787 99.9217 388.72 103.079 388.72C108.028 388.72 111.015 390 112.039 392.56C112.295 393.243 112.423 394.267 112.423 395.632C112.423 396.912 111.996 399.259 111.143 402.672C110.375 406.085 109.564 408.56 108.711 410.096C107.858 411.632 107.346 412.4 107.175 412.4C107.004 412.4 106.194 412.101 104.743 411.504C103.378 410.821 102.14 410.48 101.031 410.48C97.7883 410.48 96.167 413.04 96.167 418.16V453.872ZM126.949 407.536C124.56 403.269 123.365 399.813 123.365 397.168C123.365 394.437 124.09 392.688 125.541 391.92C130.405 389.787 137.061 388.72 145.509 388.72C154.042 388.72 160.058 390.725 163.557 394.736C167.056 398.661 168.805 404.507 168.805 412.272V432.496H173.157C174.608 432.496 175.717 433.349 176.485 435.056C177.338 436.763 177.765 439.109 177.765 442.096C177.765 445.083 176.997 448.027 175.461 450.928C174.01 453.829 172.005 455.28 169.445 455.28C164.837 455.28 161.125 454.043 158.309 451.568C157.029 450.544 156.048 449.307 155.365 447.856C151.44 452.805 145.338 455.28 137.061 455.28C130.832 455.28 125.584 453.061 121.317 448.624C117.05 444.187 114.917 438.939 114.917 432.88C114.917 418.971 123.237 412.016 139.877 412.016H146.917V410.736C146.917 408.517 146.533 407.109 145.765 406.512C145.082 405.829 143.418 405.488 140.773 405.488C137.53 405.488 132.922 406.171 126.949 407.536ZM137.189 431.088C137.189 432.965 137.701 434.416 138.725 435.44C139.749 436.379 141.029 436.848 142.565 436.848C144.186 436.848 145.637 436.208 146.917 434.928V425.072H143.333C139.237 425.072 137.189 427.077 137.189 431.088ZM180.018 390.384C179.762 389.701 183.73 389.36 191.922 389.36C200.199 389.36 204.338 389.573 204.338 390L213.554 433.52L220.466 390.64C220.722 389.872 224.946 389.488 233.138 389.488C241.415 389.488 245.426 389.829 245.17 390.512L227.122 453.104C226.525 453.957 221.447 454.384 211.89 454.384C202.333 454.384 197.213 453.744 196.53 452.464L180.018 390.384ZM300.144 450.544C294.768 453.701 287.856 455.28 279.408 455.28C270.96 455.28 263.835 452.421 258.032 446.704C252.229 440.901 249.328 432.923 249.328 422.768C249.328 412.528 252.101 404.293 257.648 398.064C263.28 391.835 270.363 388.72 278.896 388.72C287.429 388.72 294 390.896 298.608 395.248C303.301 399.6 305.648 404.891 305.648 411.12C305.648 424.944 297.712 431.856 281.84 431.856H273.008C273.008 434.416 273.691 436.208 275.056 437.232C276.507 438.171 278.597 438.64 281.328 438.64C287.301 438.64 292.976 437.275 298.352 434.544C298.437 434.459 298.821 435.056 299.504 436.336C301.552 440.005 302.576 443.12 302.576 445.68C302.576 448.155 301.765 449.776 300.144 450.544ZM284.144 413.552C284.144 409.968 282.395 408.176 278.896 408.176C277.275 408.176 275.867 408.688 274.672 409.712C273.563 410.651 273.008 412.059 273.008 413.936V417.904H279.92C282.736 417.904 284.144 416.453 284.144 413.552ZM337.306 452.976C337.306 453.744 332.954 454.128 324.25 454.128C317.423 454.043 314.01 453.701 314.01 453.104V365.936C314.01 364.656 318.149 364.016 326.426 364.016C333.679 364.272 337.306 364.699 337.306 365.296V452.976ZM463.25 454.128C455.655 454.128 451.858 453.275 451.858 451.568L449.17 400.24L433.554 452.208C433.213 453.232 430.311 453.744 424.85 453.744C419.389 453.744 416.573 453.275 416.402 452.336L400.274 399.728L398.482 450.8C398.397 452.08 396.775 452.976 393.618 453.488C390.461 453.915 387.815 454.128 385.682 454.128C383.634 454.128 381.629 454 379.666 453.744C375.57 453.147 373.565 452.08 373.65 450.544L376.594 367.344C376.594 365.296 381.799 364.272 392.21 364.272C395.282 364.272 399.037 364.528 403.474 365.04C407.911 365.467 410.386 366.363 410.898 367.728L425.234 408.048L437.778 367.6C438.546 365.381 444.434 364.272 455.442 364.272C458.599 364.272 462.354 364.528 466.706 365.04C471.143 365.467 473.362 366.277 473.362 367.472L477.074 451.44C477.074 452.379 475.41 453.061 472.082 453.488C468.754 453.915 465.81 454.128 463.25 454.128ZM494.639 446.448C489.348 440.56 486.703 432.411 486.703 422C486.703 411.589 489.348 403.44 494.639 397.552C500.015 391.664 507.226 388.72 516.271 388.72C525.316 388.72 532.484 391.664 537.775 397.552C543.066 403.44 545.711 411.589 545.711 422C545.711 432.411 543.066 440.56 537.775 446.448C532.484 452.336 525.316 455.28 516.271 455.28C507.226 455.28 500.015 452.336 494.639 446.448ZM516.271 410.096C511.492 410.096 509.103 414.021 509.103 421.872C509.103 429.723 511.492 433.648 516.271 433.648C521.135 433.648 523.567 429.723 523.567 421.872C523.567 414.021 521.135 410.096 516.271 410.096ZM587.144 365.168C587.144 363.888 590.515 363.248 597.256 363.248C599.56 363.248 602.205 363.419 605.192 363.76C608.264 364.016 609.8 364.4 609.8 364.912V432.368H614.28C616.413 432.368 617.821 434.288 618.504 438.128C618.675 439.237 618.76 440.773 618.76 442.736C618.76 444.613 618.163 446.917 616.968 449.648C615.261 453.403 612.531 455.28 608.776 455.28C605.96 455.28 603.443 454.725 601.224 453.616C599.091 452.507 597.64 451.355 596.872 450.16L595.72 448.496C591.027 453.019 585.139 455.28 578.056 455.28C570.973 455.28 564.915 452.336 559.88 446.448C554.845 440.56 552.328 432.368 552.328 421.872C552.328 411.291 554.973 403.141 560.264 397.424C565.555 391.621 572.168 388.72 580.104 388.72C582.408 388.72 584.755 388.976 587.144 389.488V365.168ZM582.92 409.2C578.141 409.2 575.752 413.509 575.752 422.128C575.752 426.48 576.435 429.637 577.8 431.6C579.165 433.477 580.659 434.416 582.28 434.416C583.987 434.416 585.608 433.691 587.144 432.24V410.48C585.693 409.627 584.285 409.2 582.92 409.2ZM675.519 450.544C670.143 453.701 663.231 455.28 654.783 455.28C646.335 455.28 639.21 452.421 633.407 446.704C627.604 440.901 624.703 432.923 624.703 422.768C624.703 412.528 627.476 404.293 633.023 398.064C638.655 391.835 645.738 388.72 654.271 388.72C662.804 388.72 669.375 390.896 673.983 395.248C678.676 399.6 681.023 404.891 681.023 411.12C681.023 424.944 673.087 431.856 657.215 431.856H648.383C648.383 434.416 649.066 436.208 650.431 437.232C651.882 438.171 653.972 438.64 656.703 438.64C662.676 438.64 668.351 437.275 673.727 434.544C673.812 434.459 674.196 435.056 674.879 436.336C676.927 440.005 677.951 443.12 677.951 445.68C677.951 448.155 677.14 449.776 675.519 450.544ZM659.519 413.552C659.519 409.968 657.77 408.176 654.271 408.176C652.65 408.176 651.242 408.688 650.047 409.712C648.938 410.651 648.383 412.059 648.383 413.936V417.904H655.295C658.111 417.904 659.519 416.453 659.519 413.552Z" fill="#6D6875"/>
</svg>
